PathFileType	3	(X/Y/Z)	D:\minhoCalibration\240510\subject2_KPNP\preferred\preferred04.trc
DataRate	CameraRate	NumFrames	NumMarkers	Units	OrigDataRate	OrigDataStartFrame	OrigNumFrames
200.0	200.0	21	10	mm	200.0	333	187	
Frame#	Time	Left_Ankle_Outer1			Left_Ankle_Inner1			Left_Knee_Outer1			Left_Knee_Inner1			Left_Wrist1			Right_Wrist1			Right_Knee_Inner1			Right_Knee_Outer1			Right_Ankle_Inner1			Right_Ankle_Outer1			
		X1	Y1	Z1	X2	Y2	Z2	X3	Y3	Z3	X4	Y4	Z4	X5	Y5	Z5	X6	Y6	Z6	X7	Y7	Z7	X8	Y8	Z8	X9	Y9	Z9	X10	Y10	Z10	
333	1.655	-493.45343	104.83989	-824.31165	-520.10907	111.44027	-775.33612	-297.44409	514.09869	-766.26483	-358.51263	496.46872	-693.93079	-313.17804	989.08569	-807.05243	-624.49036	1051.3433	-675.99188	-567.58246	590.30835	-429.74686	-650.81781	634.97406	-422.97873	-691.49365	218.05011	-564.5614	-785.05072	243.21855	-550.45551
334	1.66	-493.5127	103.95721	-824.40369	-520.20752	110.75783	-775.28241	-296.6091	512.97375	-764.63385	-358.64838	495.20224	-692.76642	-313.6994	988.11139	-805.87811	-626.14569	1048.3494	-677.95947	-572.76886	583.22729	-438.47861	-655.7981	628.06293	-432.85275	-693.06586	212.23436	-580.15332	-787.1618	237.49261	-568.37445
335	1.665	-493.48282	103.21704	-824.62506	-520.63324	109.39968	-776.79095	-296.00089	511.51331	-762.88458	-358.82486	494.09579	-691.78711	-313.6149	987.34479	-805.34521	-627.86609	1045.3197	-679.98352	-578.04169	576.3432	-447.25586	-661.0672	621.06561	-442.43427	-694.53625	207.03532	-595.21375	-788.93976	232.25105	-586.16791
336	1.67	-493.40213	102.49087	-824.87488	-520.64703	109.13277	-776.45197	-295.73804	510.34183	-761.34875	-359.00278	492.89548	-690.84796	-314.03101	986.34174	-804.29114	-629.57715	1042.2797	-682.10925	-582.84692	569.6828	-455.73761	-666.20685	614.46417	-452.00256	-695.42621	201.85764	-610.55835	-790.31683	227.25391	-603.83685
337	1.675	-493.34827	101.66975	-825.12079	-521.00714	107.4241	-778.07794	-295.39493	509.31793	-760.08899	-359.30194	491.79877	-690.05505	-314.51825	985.61078	-803.21429	-631.40131	1039.2152	-684.32062	-587.88629	563.46155	-464.58041	-671.38507	607.94885	-461.97092	-696.25323	196.93504	-624.40417	-791.15033	223.8203	-623.74298
338	1.68	-493.28247	101.00484	-825.42096	-521.55408	106.67989	-777.22479	-295.46259	508.29565	-758.80939	-359.64392	490.9895	-689.32977	-314.77188	984.95575	-802.30829	-633.1792	1036.0194	-686.63208	-592.78809	557.42322	-473.42657	-676.31189	601.82391	-471.74506	-697.45105	192.27077	-638.66333	-792.35815	219.03993	-639.82666
339	1.685	-493.2634	100.32397	-825.6745	-521.63647	106.51866	-778.0437	-295.66974	507.63126	-757.5647	-360.22186	490.18716	-688.63849	-315.16476	984.46417	-801.24841	-635.17157	1033.1349	-688.97198	-596.90662	551.71936	-482.4783	-681.24359	595.84406	-481.71649	-698.2663	187.99976	-652.82983	-792.9516	214.61467	-656.27881
340	1.69	-493.25262	99.610588	-825.93524	-522.35199	105.41883	-777.68109	-296.07089	506.98822	-756.54425	-360.94794	489.45944	-688.1095	-315.51196	984.10895	-800.21136	-637.03448	1030.1044	-691.58856	-601.87787	546.11102	-491.23495	-686.01202	590.02649	-491.80334	-699.06293	183.92297	-666.89575	-793.67639	210.94371	-672.71753
341	1.695	-493.33127	98.887741	-826.17053	-522.33777	104.72308	-778.06665	-296.83441	506.48767	-755.50153	-361.7543	488.95956	-687.58789	-315.95184	983.93713	-799.02545	-639.05292	1027.3126	-694.24408	-606.50891	540.76056	-500.0679	-690.61456	584.39246	-501.92899	-699.86896	180.0824	-680.82025	-794.21716	208.03461	-690.12579
342	1.7	-493.50153	98.257736	-826.36896	-522.54523	104.05904	-779.28845	-297.51556	506.14655	-754.72766	-362.87189	488.53207	-687.09161	-316.51395	983.91827	-797.70801	-641.06128	1024.4766	-697.0788	-610.64417	535.45209	-508.95779	-695.0874	579.04382	-512.1015	-700.61395	176.41454	-694.56549	-794.43945	204.9304	-706.14886
343	1.705	-493.6615	97.489487	-826.51807	-522.97162	103.41424	-779.36169	-298.55167	505.76227	-753.94958	-364.12711	488.2012	-686.72491	-316.8978	984.05261	-796.47809	-642.97021	1021.7006	-699.96802	-615.25714	530.74933	-517.90082	-699.39111	573.86676	-522.54376	-701.2074	172.87062	-707.56982	-794.69135	202.03502	-722.10876
344	1.71	-493.82761	96.816223	-826.67169	-523.64069	102.20721	-779.32886	-299.72061	505.41949	-753.24231	-365.55203	487.99548	-686.29785	-317.51428	984.13037	-795.08673	-644.91565	1018.9979	-703.00793	-619.3244	526.10217	-526.93878	-703.42169	568.98029	-532.80762	-701.94263	169.39153	-721.72705	-794.86298	199.25906	-737.69958
345	1.715	-494.07855	96.070869	-826.70599	-523.66443	101.64855	-780.3855	-301.05865	505.16302	-752.62604	-367.30774	487.75986	-685.88879	-317.79428	984.47546	-794.08105	-647.13416	1016.4436	-706.25323	-623.34906	521.61707	-536.01355	-707.30225	564.23376	-543.3252	-702.78827	166.28522	-734.98163	-794.70129	196.8848	-753.35767
346	1.72	-494.37555	95.341789	-826.83386	-524.69049	100.7556	-779.9267	-302.2597	504.8663	-751.83264	-369.26102	487.51385	-685.34302	-318.31454	984.88611	-792.69006	-649.15674	1013.9938	-709.4472	-627.07428	517.39246	-545.07275	-710.90131	559.79572	-554.1347	-703.40967	163.33446	-748.0517	-795.22223	194.40862	-767.85217
347	1.725	-494.59869	94.58886	-826.92926	-525.18164	99.867699	-779.92236	-303.72827	504.47183	-750.93439	-371.30054	487.21964	-684.94177	-318.94598	985.29584	-791.25909	-651.15521	1011.5784	-712.88385	-630.34131	513.3598	-554.53717	-714.72644	555.63043	-563.17773	-704.06244	160.52155	-761.01147	-795.16443	192.20401	-782.48157
348	1.73	-494.76447	93.891617	-826.9928	-525.05005	99.332985	-780.57892	-305.14301	504.15521	-749.86682	-373.59116	486.95184	-684.4046	-319.53036	985.83118	-789.90393	-652.96625	1009.6581	-715.80566	-634.15466	509.69965	-563.86096	-717.35687	551.6684	-575.43927	-704.78223	157.85931	-773.57635	-795.12286	190.45593	-797.21448
349	1.735	-494.94241	93.149445	-827.09888	-525.97009	97.903191	-780.77026	-306.79092	503.71365	-748.44397	-375.87817	486.70401	-683.84229	-320.13235	986.29346	-788.55414	-655.08978	1007.3675	-719.20703	-637.3078	506.32458	-573.26556	-720.25311	548.02618	-586.172	-705.31732	155.36977	-785.94019	-794.76648	188.33936	-810.67932
350	1.74	-495.09442	92.542778	-827.16699	-525.94177	97.542328	-781.04315	-307.82437	503.53683	-747.14099	-378.36057	486.63098	-683.17059	-320.93109	986.58527	-787.11298	-656.83948	1005.7737	-722.59576	-639.60089	502.80017	-580.73798	-722.85291	544.68402	-596.7652	-705.71271	153.09264	-798.17059	-794.62976	186.5383	-824.39148
351	1.745	-495.19864	91.96006	-827.26953	-526.59619	96.298325	-781.41925	-309.27744	503.25858	-745.48456	-380.93127	486.40958	-682.5697	-322.10651	986.55853	-785.50476	-658.6825	1003.8995	-726.93774	-642.48279	499.70255	-591.88232	-725.28845	541.68799	-607.16449	-706.05542	150.92513	-810.11053	-794.25653	184.77522	-837.66541
352	1.75	-495.27087	91.385307	-827.32819	-527.09204	95.610077	-781.5921	-310.51797	503.07153	-743.7926	-383.4458	486.27991	-681.95062	-323.36182	986.60254	-784.86865	-660.61877	1002.63	-729.41187	-644.95081	497.43018	-601.32336	-727.60034	538.95227	-617.3385	-706.14349	148.96474	-821.71478	-793.93982	183.16289	-850.50739
353	1.755	-495.34879	90.848488	-827.35944	-527.23199	95.299164	-780.98492	-311.93958	502.80942	-742.05621	-385.99722	486.12164	-681.22534	-324.08795	986.84857	-782.57739	-662.57355	1001.2255	-732.80701	-647.50256	494.52954	-612.43872	-729.71661	536.36798	-627.46228	-706.23157	147.09737	-833.15521	-793.36615	181.57158	-863.04523
